<?xml version="1.0" encoding="UTF-8"?>
<svg xmlns="http://www.w3.org/2000/svg" width="985px" height="560px">
<style>
@font-face {
src: local('Consolas'), local('Consolas Bold');
font-family: 'ConsolasFallback';
font-display: swap;
-webkit-size-adjust: 109%;
size-adjust: 109%;
}
.key {fill: #ffa657;}
.value {fill: #a5d6ff;}
.cc {fill: #616e7f;}
text, tspan {white-space: pre;}
</style>
<rect width="985px" height="560px" fill="#0d1117" rx="15"/>
<text font-family="ConsolasFallback,Consolas,'Courier New',monospace" font-size="7px" font-weight="bold">
<tspan x="15.0" y="15" fill="#393939">0</tspan><tspan x="19.2" y="15" fill="#2A2A2A">1</tspan><tspan x="23.4" y="15" fill="#3C3C3C">0</tspan><tspan x="27.6" y="15" fill="#464646">1</tspan><tspan x="31.8" y="15" fill="#292929">0101</tspan><tspan x="48.6" y="15" fill="#1D1D1D">0</tspan><tspan x="52.8" y="15" fill="#141414">1</tspan><tspan x="57.0" y="15" fill="#202020">0</tspan><tspan x="61.2" y="15" fill="#141414">10</tspan><tspan x="69.6" y="15" fill="#323232">10</tspan><tspan x="78.0" y="15" fill="#4F4F4F">10</tspan><tspan x="86.4" y="15" fill="#262626">1</tspan><tspan x="90.6" y="15" fill="#363636">0</tspan><tspan x="94.8" y="15" fill="#4A4A4A">1</tspan><tspan x="99.0" y="15" fill="#333333">0</tspan><tspan x="103.2" y="15" fill="#292929">10</tspan><tspan x="111.6" y="15" fill="#202020">1</tspan><tspan x="115.8" y="15" fill="#3D3D3D">0</tspan><tspan x="120.0" y="15" fill="#313131">1</tspan><tspan x="124.2" y="15" fill="#101010">0</tspan><tspan x="128.4" y="15" fill="#070707">101</tspan><tspan x="141.0" y="15" fill="#101010">01</tspan><tspan x="149.4" y="15" fill="#191919">0</tspan><tspan x="153.6" y="15" fill="#2A2A2A">10</tspan><tspan x="162.0" y="15" fill="#161616">1</tspan><tspan x="166.2" y="15" fill="#202020">0101</tspan><tspan x="183.0" y="15" fill="#2D2D2D">010</tspan><tspan x="195.6" y="15" fill="#171717">1</tspan><tspan x="199.8" y="15" fill="#080808">01</tspan><tspan x="208.2" y="15" fill="#1A1A1A">010</tspan><tspan x="220.8" y="15" fill="#343434">1</tspan>
<tspan x="15.0" y="24" fill="#595959">1</tspan><tspan x="19.2" y="24" fill="#404040">0</tspan><tspan x="23.4" y="24" fill="#262626">1010</tspan><tspan x="40.2" y="24" fill="#383838">1</tspan><tspan x="44.4" y="24" fill="#2D2D2D">0</tspan><tspan x="48.6" y="24" fill="#1D1D1D">1</tspan><tspan x="52.8" y="24" fill="#282828">0</tspan><tspan x="57.0" y="24" fill="#1E1E1E">101</tspan><tspan x="69.6" y="24" fill="#2D2D2D">0</tspan><tspan x="73.8" y="24" fill="#404040">1</tspan><tspan x="78.0" y="24" fill="#5D5D5D">01</tspan><tspan x="86.4" y="24" fill="#383838">0</tspan><tspan x="90.6" y="24" fill="#474747">1</tspan><tspan x="94.8" y="24" fill="#313131">0</tspan><tspan x="99.0" y="24" fill="#191919">1</tspan><tspan x="103.2" y="24" fill="#313131">01010</tspan><tspan x="124.2" y="24" fill="#1D1D1D">10</tspan><tspan x="132.6" y="24" fill="#0B0B0B">101</tspan><tspan x="145.2" y="24" fill="#1D1D1D">010101010</tspan><tspan x="183.0" y="24" fill="#2F2F2F">10</tspan><tspan x="191.4" y="24" fill="#252525">1</tspan><tspan x="195.6" y="24" fill="#131313">0</tspan><tspan x="204.0" y="24" fill="#0C0C0C">010</tspan><tspan x="216.6" y="24" fill="#222222">1</tspan><tspan x="220.8" y="24" fill="#434343">0</tspan>
<tspan x="15.0" y="33" fill="#3B3B3B">0</tspan><tspan x="19.2" y="33" fill="#4E4E4E">10</tspan><tspan x="27.6" y="33" fill="#3B3B3B">1</tspan><tspan x="31.8" y="33" fill="#202020">0</tspan><tspan x="36.0" y="33" fill="#323232">1</tspan><tspan x="40.2" y="33" fill="#5B5B5B">0</tspan><tspan x="44.4" y="33" fill="#353535">1</tspan><tspan x="48.6" y="33" fill="#202020">0</tspan><tspan x="52.8" y="33" fill="#292929">1</tspan><tspan x="57.0" y="33" fill="#1D1D1D">0</tspan><tspan x="61.2" y="33" fill="#0D0D0D">10</tspan><tspan x="69.6" y="33" fill="#2F2F2F">1</tspan><tspan x="73.8" y="33" fill="#4A4A4A">0</tspan><tspan x="78.0" y="33" fill="#5D5D5D">1</tspan><tspan x="82.2" y="33" fill="#545454">0</tspan><tspan x="86.4" y="33" fill="#3C3C3C">101010</tspan><tspan x="111.6" y="33" fill="#2B2B2B">1010101</tspan><tspan x="141.0" y="33" fill="#1B1B1B">0</tspan><tspan x="145.2" y="33" fill="#2D2D2D">10</tspan><tspan x="153.6" y="33" fill="#1C1C1C">1</tspan><tspan x="157.8" y="33" fill="#0F0F0F">01010101</tspan><tspan x="191.4" y="33" fill="#1F1F1F">01</tspan><tspan x="199.8" y="33" fill="#0E0E0E">0101</tspan><tspan x="216.6" y="33" fill="#252525">0</tspan><tspan x="220.8" y="33" fill="#2F2F2F">1</tspan>
<tspan x="15.0" y="42" fill="#454545">101</tspan><tspan x="27.6" y="42" fill="#717171">0</tspan><tspan x="31.8" y="42" fill="#525252">1</tspan><tspan x="36.0" y="42" fill="#323232">010</tspan><tspan x="48.6" y="42" fill="#272727">1</tspan><tspan x="52.8" y="42" fill="#111111">0</tspan><tspan x="57.0" y="42" fill="#1C1C1C">101</tspan><tspan x="69.6" y="42" fill="#3A3A3A">0</tspan><tspan x="73.8" y="42" fill="#4F4F4F">1</tspan><tspan x="78.0" y="42" fill="#5B5B5B">0</tspan><tspan x="82.2" y="42" fill="#686868">1</tspan><tspan x="86.4" y="42" fill="#4F4F4F">0</tspan><tspan x="90.6" y="42" fill="#363636">1</tspan><tspan x="94.8" y="42" fill="#484848">0</tspan><tspan x="99.0" y="42" fill="#727272">1</tspan><tspan x="103.2" y="42" fill="#3E3E3E">0101010</tspan><tspan x="132.6" y="42" fill="#313131">1</tspan><tspan x="136.8" y="42" fill="#191919">01</tspan><tspan x="145.2" y="42" fill="#2C2C2C">010</tspan><tspan x="157.8" y="42" fill="#202020">1010</tspan><tspan x="174.6" y="42" fill="#131313">10101</tspan><tspan x="195.6" y="42" fill="#1D1D1D">0</tspan><tspan x="199.8" y="42" fill="#141414">101010</tspan>
<tspan x="15.0" y="51" fill="#383838">01</tspan><tspan x="23.4" y="51" fill="#4D4D4D">0</tspan><tspan x="27.6" y="51" fill="#434343">101</tspan><tspan x="40.2" y="51" fill="#2A2A2A">0101</tspan><tspan x="57.0" y="51" fill="#383838">0</tspan><tspan x="61.2" y="51" fill="#242424">10</tspan><tspan x="69.6" y="51" fill="#3C3C3C">1</tspan><tspan x="73.8" y="51" fill="#565656">0</tspan><tspan x="78.0" y="51" fill="#6D6D6D">10</tspan><tspan x="86.4" y="51" fill="#606060">1</tspan><tspan x="90.6" y="51" fill="#525252">01</tspan><tspan x="99.0" y="51" fill="#707070">01</tspan><tspan x="107.4" y="51" fill="#474747">01</tspan><tspan x="115.8" y="51" fill="#5C5C5C">010</tspan><tspan x="128.4" y="51" fill="#4C4C4C">10</tspan><tspan x="136.8" y="51" fill="#303030">1</tspan><tspan x="141.0" y="51" fill="#272727">0</tspan><tspan x="145.2" y="51" fill="#1D1D1D">101</tspan><tspan x="157.8" y="51" fill="#141414">010101</tspan><tspan x="183.0" y="51" fill="#1E1E1E">01</tspan><tspan x="191.4" y="51" fill="#101010">01</tspan><tspan x="199.8" y="51" fill="#070707">01</tspan><tspan x="208.2" y="51" fill="#111111">010</tspan><tspan x="220.8" y="51" fill="#1A1A1A">1</tspan>
<tspan x="15.0" y="60" fill="#343434">10</tspan><tspan x="23.4" y="60" fill="#505050">1</tspan><tspan x="27.6" y="60" fill="#414141">0</tspan><tspan x="31.8" y="60" fill="#2B2B2B">1</tspan><tspan x="36.0" y="60" fill="#353535">0</tspan><tspan x="40.2" y="60" fill="#2B2B2B">1</tspan><tspan x="44.4" y="60" fill="#1B1B1B">0</tspan><tspan x="48.6" y="60" fill="#111111">1</tspan><tspan x="52.8" y="60" fill="#262626">0101</tspan><tspan x="69.6" y="60" fill="#393939">0</tspan><tspan x="73.8" y="60" fill="#4F4F4F">1010</tspan><tspan x="90.6" y="60" fill="#626262">10</tspan><tspan x="99.0" y="60" fill="#494949">1</tspan><tspan x="103.2" y="60" fill="#5A5A5A">0</tspan><tspan x="107.4" y="60" fill="#3B3B3B">1</tspan><tspan x="111.6" y="60" fill="#4E4E4E">01</tspan><tspan x="120.0" y="60" fill="#3A3A3A">01010</tspan><tspan x="141.0" y="60" fill="#2C2C2C">1</tspan><tspan x="145.2" y="60" fill="#202020">0</tspan><tspan x="149.4" y="60" fill="#141414">1010</tspan><tspan x="166.2" y="60" fill="#070707">101</tspan><tspan x="178.8" y="60" fill="#101010">0101</tspan><tspan x="195.6" y="60" fill="#212121">0</tspan><tspan x="199.8" y="60" fill="#0B0B0B">1010</tspan><tspan x="216.6" y="60" fill="#202020">1</tspan><tspan x="220.8" y="60" fill="#2E2E2E">0</tspan>
<tspan x="15.0" y="69" fill="#464646">01</tspan><tspan x="23.4" y="69" fill="#585858">0</tspan><tspan x="27.6" y="69" fill="#3D3D3D">10</tspan><tspan x="36.0" y="69" fill="#494949">1</tspan><tspan x="40.2" y="69" fill="#3B3B3B">0</tspan><tspan x="44.4" y="69" fill="#282828">10</tspan><tspan x="52.8" y="69" fill="#4A4A4A">1</tspan><tspan x="57.0" y="69" fill="#343434">0</tspan><tspan x="61.2" y="69" fill="#2A2A2A">1</tspan><tspan x="65.4" y="69" fill="#333333">01</tspan><tspan x="73.8" y="69" fill="#414141">0</tspan><tspan x="78.0" y="69" fill="#4B4B4B">10</tspan><tspan x="86.4" y="69" fill="#5D5D5D">101</tspan><tspan x="99.0" y="69" fill="#4D4D4D">0</tspan><tspan x="103.2" y="69" fill="#393939">1</tspan><tspan x="107.4" y="69" fill="#222222">01</tspan><tspan x="115.8" y="69" fill="#090909">010101</tspan><tspan x="141.0" y="69" fill="#141414">0101</tspan><tspan x="157.8" y="69" fill="#252525">0</tspan><tspan x="162.0" y="69" fill="#1B1B1B">1</tspan><tspan x="166.2" y="69" fill="#121212">0101010</tspan><tspan x="195.6" y="69" fill="#1E1E1E">1</tspan><tspan x="199.8" y="69" fill="#0C0C0C">010101</tspan>
<tspan x="15.0" y="78" fill="#4D4D4D">1</tspan><tspan x="19.2" y="78" fill="#444444">0</tspan><tspan x="23.4" y="78" fill="#303030">1</tspan><tspan x="27.6" y="78" fill="#454545">01</tspan><tspan x="36.0" y="78" fill="#2C2C2C">0</tspan><tspan x="40.2" y="78" fill="#212121">1</tspan><tspan x="44.4" y="78" fill="#2F2F2F">0</tspan><tspan x="48.6" y="78" fill="#565656">10</tspan><tspan x="57.0" y="78" fill="#2D2D2D">10</tspan><tspan x="65.4" y="78" fill="#363636">1</tspan><tspan x="69.6" y="78" fill="#232323">010</tspan><tspan x="82.2" y="78" fill="#161616">101</tspan><tspan x="94.8" y="78" fill="#222222">010</tspan><tspan x="107.4" y="78" fill="#141414">1</tspan><tspan x="153.6" y="78" fill="#090909">01</tspan><tspan x="162.0" y="78" fill="#131313">010</tspan><tspan x="174.6" y="78" fill="#0A0A0A">10101010</tspan><tspan x="208.2" y="78" fill="#131313">1</tspan><tspan x="212.4" y="78" fill="#090909">010</tspan>
<tspan x="15.0" y="87" fill="#2A2A2A">0</tspan><tspan x="19.2" y="87" fill="#424242">10101</tspan><tspan x="40.2" y="87" fill="#262626">0</tspan><tspan x="44.4" y="87" fill="#434343">1</tspan><tspan x="48.6" y="87" fill="#5D5D5D">0</tspan><tspan x="52.8" y="87" fill="#313131">1</tspan><tspan x="57.0" y="87" fill="#252525">0</tspan><tspan x="61.2" y="87" fill="#2E2E2E">1</tspan><tspan x="65.4" y="87" fill="#161616">0</tspan><tspan x="69.6" y="87" fill="#060606">1010101</tspan><tspan x="99.0" y="87" fill="#101010">010</tspan><tspan x="111.6" y="87" fill="#3F3F3F">1</tspan><tspan x="115.8" y="87" fill="#838383">0</tspan><tspan x="120.0" y="87" fill="#9D9D9D">10</tspan><tspan x="128.4" y="87" fill="#818181">1</tspan><tspan x="132.6" y="87" fill="#484848">0</tspan><tspan x="136.8" y="87" fill="#1B1B1B">1</tspan><tspan x="166.2" y="87" fill="#0A0A0A">010</tspan><tspan x="178.8" y="87" fill="#131313">10</tspan><tspan x="187.2" y="87" fill="#0A0A0A">101</tspan><tspan x="199.8" y="87" fill="#141414">0</tspan><tspan x="216.6" y="87" fill="#0F0F0F">01</tspan>
<tspan x="15.0" y="96" fill="#2A2A2A">10</tspan><tspan x="23.4" y="96" fill="#646464">1</tspan><tspan x="27.6" y="96" fill="#787878">0</tspan><tspan x="31.8" y="96" fill="#676767">1</tspan><tspan x="36.0" y="96" fill="#4C4C4C">0</tspan><tspan x="40.2" y="96" fill="#313131">1</tspan><tspan x="44.4" y="96" fill="#4B4B4B">0</tspan><tspan x="48.6" y="96" fill="#565656">1</tspan><tspan x="52.8" y="96" fill="#2E2E2E">010</tspan><tspan x="82.2" y="96" fill="#1F1F1F">1</tspan><tspan x="86.4" y="96" fill="#656565">0</tspan><tspan x="90.6" y="96" fill="#9E9E9E">1</tspan><tspan x="94.8" y="96" fill="#B3B3B3">0</tspan><tspan x="99.0" y="96" fill="#BFBFBF">10</tspan><tspan x="107.4" y="96" fill="#CFCFCF">1</tspan><tspan x="111.6" y="96" fill="#F1F1F1">0</tspan><tspan x="115.8" y="96" fill="#FFFFFF">1010</tspan><tspan x="132.6" y="96" fill="#F4F4F4">1</tspan><tspan x="136.8" y="96" fill="#CBCBCB">0</tspan><tspan x="141.0" y="96" fill="#878787">1</tspan><tspan x="145.2" y="96" fill="#4B4B4B">0</tspan><tspan x="149.4" y="96" fill="#191919">1</tspan><tspan x="174.6" y="96" fill="#121212">101</tspan><tspan x="187.2" y="96" fill="#1B1B1B">0101</tspan><tspan x="204.0" y="96" fill="#121212">01</tspan><tspan x="212.4" y="96" fill="#080808">01</tspan><tspan x="220.8" y="96" fill="#151515">0</tspan>
<tspan x="15.0" y="105" fill="#131313">0</tspan><tspan x="19.2" y="105" fill="#363636">1</tspan><tspan x="23.4" y="105" fill="#4E4E4E">01</tspan><tspan x="31.8" y="105" fill="#707070">0</tspan><tspan x="36.0" y="105" fill="#818181">1</tspan><tspan x="40.2" y="105" fill="#616161">0</tspan><tspan x="44.4" y="105" fill="#525252">1</tspan><tspan x="48.6" y="105" fill="#3F3F3F">0</tspan><tspan x="52.8" y="105" fill="#333333">10</tspan><tspan x="61.2" y="105" fill="#0F0F0F">1</tspan><tspan x="73.8" y="105" fill="#151515">0</tspan><tspan x="78.0" y="105" fill="#6A6A6A">1</tspan><tspan x="82.2" y="105" fill="#CBCBCB">0</tspan><tspan x="86.4" y="105" fill="#FFFFFF">1010101010101</tspan><tspan x="141.0" y="105" fill="#EDEDED">0</tspan><tspan x="145.2" y="105" fill="#D9D9D9">1</tspan><tspan x="149.4" y="105" fill="#A8A8A8">0</tspan><tspan x="153.6" y="105" fill="#515151">1</tspan><tspan x="157.8" y="105" fill="#070707">01010</tspan><tspan x="178.8" y="105" fill="#1E1E1E">10101</tspan><tspan x="199.8" y="105" fill="#141414">0</tspan><tspan x="204.0" y="105" fill="#1D1D1D">1</tspan><tspan x="208.2" y="105" fill="#282828">0</tspan><tspan x="212.4" y="105" fill="#191919">1</tspan><tspan x="216.6" y="105" fill="#0F0F0F">01</tspan>
<tspan x="15.0" y="114" fill="#323232">1</tspan><tspan x="19.2" y="114" fill="#636363">0</tspan><tspan x="23.4" y="114" fill="#7E7E7E">1</tspan><tspan x="27.6" y="114" fill="#585858">0</tspan><tspan x="31.8" y="114" fill="#616161">1</tspan><tspan x="36.0" y="114" fill="#535353">0</tspan><tspan x="40.2" y="114" fill="#7E7E7E">1</tspan><tspan x="44.4" y="114" fill="#949494">0</tspan><tspan x="48.6" y="114" fill="#5C5C5C">1</tspan><tspan x="52.8" y="114" fill="#383838">0</tspan><tspan x="57.0" y="114" fill="#2E2E2E">1</tspan><tspan x="69.6" y="114" fill="#4E4E4E">0</tspan><tspan x="73.8" y="114" fill="#C1C1C1">1</tspan><tspan x="78.0" y="114" fill="#FDFDFD">0101010101010101</tspan><tspan x="145.2" y="114" fill="#E5E5E5">0</tspan><tspan x="149.4" y="114" fill="#CFCFCF">1</tspan><tspan x="153.6" y="114" fill="#BFBFBF">0</tspan><tspan x="157.8" y="114" fill="#818181">1</tspan><tspan x="162.0" y="114" fill="#131313">0</tspan><tspan x="178.8" y="114" fill="#1A1A1A">0101</tspan><tspan x="195.6" y="114" fill="#282828">0</tspan><tspan x="199.8" y="114" fill="#1F1F1F">10</tspan><tspan x="208.2" y="114" fill="#282828">10</tspan><tspan x="216.6" y="114" fill="#151515">1</tspan><tspan x="220.8" y="114" fill="#090909">0</tspan>
<tspan x="15.0" y="123" fill="#616161">0</tspan><tspan x="19.2" y="123" fill="#CBCBCB">1</tspan><tspan x="23.4" y="123" fill="#A2A2A2">0</tspan><tspan x="27.6" y="123" fill="#616161">1</tspan><tspan x="31.8" y="123" fill="#505050">0</tspan><tspan x="36.0" y="123" fill="#343434">10</tspan><tspan x="44.4" y="123" fill="#474747">1</tspan><tspan x="48.6" y="123" fill="#1E1E1E">0</tspan><tspan x="52.8" y="123" fill="#060606">101</tspan><tspan x="65.4" y="123" fill="#464646">0</tspan><tspan x="69.6" y="123" fill="#CBCBCB">10</tspan><tspan x="78.0" y="123" fill="#E3E3E3">1</tspan><tspan x="82.2" y="123" fill="#F8F8F8">0101010101010101</tspan><tspan x="149.4" y="123" fill="#EBEBEB">0</tspan><tspan x="153.6" y="123" fill="#CBCBCB">1</tspan><tspan x="157.8" y="123" fill="#C1C1C1">0</tspan><tspan x="162.0" y="123" fill="#787878">1</tspan><tspan x="166.2" y="123" fill="#0A0A0A">0</tspan><tspan x="178.8" y="123" fill="#161616">1</tspan><tspan x="183.0" y="123" fill="#252525">01010101</tspan><tspan x="216.6" y="123" fill="#1C1C1C">0</tspan><tspan x="220.8" y="123" fill="#0D0D0D">1</tspan>
<tspan x="15.0" y="132" fill="#D1D1D1">1</tspan><tspan x="19.2" y="132" fill="#E4E4E4">0</tspan><tspan x="23.4" y="132" fill="#818181">1</tspan><tspan x="27.6" y="132" fill="#515151">0</tspan><tspan x="31.8" y="132" fill="#3A3A3A">1</tspan><tspan x="36.0" y="132" fill="#262626">01</tspan><tspan x="44.4" y="132" fill="#1D1D1D">0</tspan><tspan x="48.6" y="132" fill="#141414">1</tspan><tspan x="52.8" y="132" fill="#1D1D1D">0</tspan><tspan x="57.0" y="132" fill="#0C0C0C">1</tspan><tspan x="65.4" y="132" fill="#616161">1</tspan><tspan x="69.6" y="132" fill="#C3C3C3">01</tspan><tspan x="78.0" y="132" fill="#EFEFEF">0</tspan><tspan x="82.2" y="132" fill="#FFFFFF">1</tspan><tspan x="86.4" y="132" fill="#F5F5F5">0</tspan><tspan x="90.6" y="132" fill="#E1E1E1">10</tspan><tspan x="99.0" y="132" fill="#F1F1F1">1</tspan><tspan x="103.2" y="132" fill="#FEFEFE">0101</tspan><tspan x="120.0" y="132" fill="#F5F5F5">0</tspan><tspan x="124.2" y="132" fill="#D2D2D2">1</tspan><tspan x="128.4" y="132" fill="#BEBEBE">0</tspan><tspan x="132.6" y="132" fill="#A0A0A0">1</tspan><tspan x="136.8" y="132" fill="#818181">0101</tspan><tspan x="153.6" y="132" fill="#8B8B8B">0</tspan><tspan x="157.8" y="132" fill="#A0A0A0">10</tspan><tspan x="166.2" y="132" fill="#4C4C4C">1</tspan><tspan x="170.4" y="132" fill="#060606">01</tspan><tspan x="178.8" y="132" fill="#333333">01</tspan><tspan x="187.2" y="132" fill="#1A1A1A">01</tspan><tspan x="195.6" y="132" fill="#282828">0</tspan><tspan x="199.8" y="132" fill="#313131">101</tspan><tspan x="212.4" y="132" fill="#282828">0</tspan><tspan x="216.6" y="132" fill="#171717">10</tspan>
<tspan x="15.0" y="141" fill="#ECECEC">0</tspan><tspan x="19.2" y="141" fill="#8F8F8F">1</tspan><tspan x="23.4" y="141" fill="#2A2A2A">0</tspan><tspan x="27.6" y="141" fill="#434343">1</tspan><tspan x="31.8" y="141" fill="#616161">0</tspan><tspan x="36.0" y="141" fill="#535353">1</tspan><tspan x="40.2" y="141" fill="#4A4A4A">01</tspan><tspan x="48.6" y="141" fill="#3D3D3D">0</tspan><tspan x="52.8" y="141" fill="#484848">1</tspan><tspan x="57.0" y="141" fill="#1E1E1E">0</tspan><tspan x="65.4" y="141" fill="#646464">0</tspan><tspan x="69.6" y="141" fill="#B3B3B3">10</tspan><tspan x="78.0" y="141" fill="#8C8C8C">1</tspan><tspan x="82.2" y="141" fill="#646464">0</tspan><tspan x="86.4" y="141" fill="#393939">1</tspan><tspan x="90.6" y="141" fill="#242424">01</tspan><tspan x="99.0" y="141" fill="#4D4D4D">0</tspan><tspan x="103.2" y="141" fill="#828282">1</tspan><tspan x="107.4" y="141" fill="#AEAEAE">0</tspan><tspan x="111.6" y="141" fill="#D2D2D2">10</tspan><tspan x="120.0" y="141" fill="#A1A1A1">1</tspan><tspan x="124.2" y="141" fill="#595959">0</tspan><tspan x="128.4" y="141" fill="#3E3E3E">1</tspan><tspan x="132.6" y="141" fill="#292929">01</tspan><tspan x="141.0" y="141" fill="#5B5B5B">0</tspan><tspan x="145.2" y="141" fill="#696969">1</tspan><tspan x="149.4" y="141" fill="#747474">0</tspan><tspan x="153.6" y="141" fill="#848484">1</tspan><tspan x="157.8" y="141" fill="#959595">01</tspan><tspan x="166.2" y="141" fill="#737373">0</tspan><tspan x="170.4" y="141" fill="#1D1D1D">1</tspan><tspan x="174.6" y="141" fill="#0E0E0E">0</tspan><tspan x="178.8" y="141" fill="#202020">10101010101</tspan>
<tspan x="15.0" y="150" fill="#818181">1</tspan><tspan x="19.2" y="150" fill="#3A3A3A">0</tspan><tspan x="23.4" y="150" fill="#464646">101</tspan><tspan x="36.0" y="150" fill="#696969">0</tspan><tspan x="40.2" y="150" fill="#A0A0A0">1</tspan><tspan x="44.4" y="150" fill="#888888">0</tspan><tspan x="48.6" y="150" fill="#3B3B3B">10</tspan><tspan x="57.0" y="150" fill="#2E2E2E">1</tspan><tspan x="65.4" y="150" fill="#535353">1</tspan><tspan x="69.6" y="150" fill="#B9B9B9">0</tspan><tspan x="73.8" y="150" fill="#8C8C8C">1</tspan><tspan x="78.0" y="150" fill="#606060">0</tspan><tspan x="82.2" y="150" fill="#575757">101</tspan><tspan x="94.8" y="150" fill="#373737">0</tspan><tspan x="99.0" y="150" fill="#212121">10</tspan><tspan x="107.4" y="150" fill="#565656">1</tspan><tspan x="111.6" y="150" fill="#CDCDCD">0</tspan><tspan x="115.8" y="150" fill="#F3F3F3">1</tspan><tspan x="120.0" y="150" fill="#BFBFBF">0</tspan><tspan x="124.2" y="150" fill="#717171">1</tspan><tspan x="128.4" y="150" fill="#494949">01</tspan><tspan x="136.8" y="150" fill="#5A5A5A">0</tspan><tspan x="141.0" y="150" fill="#4A4A4A">1</tspan><tspan x="145.2" y="150" fill="#767676">0</tspan><tspan x="149.4" y="150" fill="#676767">10</tspan><tspan x="157.8" y="150" fill="#9E9E9E">1</tspan><tspan x="162.0" y="150" fill="#ACACAC">0</tspan><tspan x="166.2" y="150" fill="#888888">1</tspan><tspan x="170.4" y="150" fill="#242424">0</tspan><tspan x="174.6" y="150" fill="#191919">1</tspan><tspan x="178.8" y="150" fill="#7B7B7B">0</tspan><tspan x="183.0" y="150" fill="#515151">1</tspan><tspan x="187.2" y="150" fill="#1F1F1F">010</tspan><tspan x="199.8" y="150" fill="#282828">101</tspan><tspan x="212.4" y="150" fill="#1E1E1E">010</tspan>
<tspan x="15.0" y="159" fill="#484848">0</tspan><tspan x="19.2" y="159" fill="#343434">1</tspan><tspan x="23.4" y="159" fill="#424242">0</tspan><tspan x="27.6" y="159" fill="#5E5E5E">1</tspan><tspan x="31.8" y="159" fill="#4C4C4C">01</tspan><tspan x="40.2" y="159" fill="#747474">01</tspan><tspan x="48.6" y="159" fill="#363636">0</tspan><tspan x="52.8" y="159" fill="#282828">10</tspan><tspan x="65.4" y="159" fill="#1F1F1F">0</tspan><tspan x="69.6" y="159" fill="#B1B1B1">10</tspan><tspan x="78.0" y="159" fill="#656565">1</tspan><tspan x="82.2" y="159" fill="#4A4A4A">0</tspan><tspan x="86.4" y="159" fill="#626262">1</tspan><tspan x="90.6" y="159" fill="#2D2D2D">0</tspan><tspan x="94.8" y="159" fill="#3F3F3F">1</tspan><tspan x="99.0" y="159" fill="#737373">0</tspan><tspan x="103.2" y="159" fill="#5B5B5B">1</tspan><tspan x="107.4" y="159" fill="#979797">0</tspan><tspan x="111.6" y="159" fill="#F4F4F4">1</tspan><tspan x="115.8" y="159" fill="#FFFFFF">01</tspan><tspan x="124.2" y="159" fill="#CCCCCC">0</tspan><tspan x="128.4" y="159" fill="#AFAFAF">10</tspan><tspan x="136.8" y="159" fill="#9C9C9C">1</tspan><tspan x="141.0" y="159" fill="#707070">0</tspan><tspan x="145.2" y="159" fill="#989898">1</tspan><tspan x="149.4" y="159" fill="#A9A9A9">0</tspan><tspan x="153.6" y="159" fill="#CACACA">1</tspan><tspan x="157.8" y="159" fill="#ECECEC">0</tspan><tspan x="162.0" y="159" fill="#E1E1E1">1</tspan><tspan x="166.2" y="159" fill="#B2B2B2">0</tspan><tspan x="170.4" y="159" fill="#5E5E5E">1</tspan><tspan x="174.6" y="159" fill="#BFBFBF">0</tspan><tspan x="178.8" y="159" fill="#DEDEDE">1</tspan><tspan x="183.0" y="159" fill="#5F5F5F">0</tspan><tspan x="187.2" y="159" fill="#1C1C1C">1</tspan><tspan x="191.4" y="159" fill="#282828">010101</tspan><tspan x="216.6" y="159" fill="#1E1E1E">0</tspan><tspan x="220.8" y="159" fill="#0F0F0F">1</tspan>
<tspan x="15.0" y="168" fill="#1A1A1A">10</tspan><tspan x="23.4" y="168" fill="#343434">10</tspan><tspan x="31.8" y="168" fill="#404040">1</tspan><tspan x="36.0" y="168" fill="#2B2B2B">01010</tspan><tspan x="57.0" y="168" fill="#535353">1</tspan><tspan x="61.2" y="168" fill="#747474">0</tspan><tspan x="65.4" y="168" fill="#3B3B3B">1</tspan><tspan x="69.6" y="168" fill="#B1B1B1">0</tspan><tspan x="73.8" y="168" fill="#DCDCDC">1</tspan><tspan x="78.0" y="168" fill="#D2D2D2">0</tspan><tspan x="82.2" y="168" fill="#BDBDBD">1010</tspan><tspan x="99.0" y="168" fill="#DFDFDF">1</tspan><tspan x="103.2" y="168" fill="#E9E9E9">01</tspan><tspan x="111.6" y="168" fill="#FFFFFF">010101010101</tspan><tspan x="162.0" y="168" fill="#F0F0F0">0</tspan><tspan x="166.2" y="168" fill="#C3C3C3">1</tspan><tspan x="170.4" y="168" fill="#9B9B9B">0</tspan><tspan x="174.6" y="168" fill="#929292">1</tspan><tspan x="178.8" y="168" fill="#DDDDDD">0</tspan><tspan x="183.0" y="168" fill="#777777">1</tspan><tspan x="187.2" y="168" fill="#0D0D0D">0</tspan><tspan x="191.4" y="168" fill="#202020">10</tspan><tspan x="199.8" y="168" fill="#171717">1</tspan><tspan x="204.0" y="168" fill="#212121">0101</tspan><tspan x="220.8" y="168" fill="#0F0F0F">0</tspan>
<tspan x="15.0" y="177" fill="#1C1C1C">010</tspan><tspan x="27.6" y="177" fill="#2B2B2B">1</tspan><tspan x="31.8" y="177" fill="#3B3B3B">0</tspan><tspan x="36.0" y="177" fill="#282828">101</tspan><tspan x="48.6" y="177" fill="#3C3C3C">0</tspan><tspan x="52.8" y="177" fill="#1D1D1D">1</tspan><tspan x="57.0" y="177" fill="#555555">0</tspan><tspan x="61.2" y="177" fill="#C7C7C7">101</tspan><tspan x="73.8" y="177" fill="#F9F9F9">010101010</tspan><tspan x="111.6" y="177" fill="#E6E6E6">1</tspan><tspan x="115.8" y="177" fill="#F2F2F2">0</tspan><tspan x="120.0" y="177" fill="#E4E4E4">1</tspan><tspan x="124.2" y="177" fill="#BDBDBD">0</tspan><tspan x="128.4" y="177" fill="#C8C8C8">1</tspan><tspan x="132.6" y="177" fill="#F2F2F2">0</tspan><tspan x="136.8" y="177" fill="#FEFEFE">101010</tspan><tspan x="162.0" y="177" fill="#E1E1E1">1</tspan><tspan x="166.2" y="177" fill="#B5B5B5">0</tspan><tspan x="170.4" y="177" fill="#8D8D8D">1</tspan><tspan x="174.6" y="177" fill="#A0A0A0">0</tspan><tspan x="178.8" y="177" fill="#D3D3D3">1</tspan><tspan x="183.0" y="177" fill="#AAAAAA">0</tspan><tspan x="187.2" y="177" fill="#0B0B0B">1</tspan><tspan x="191.4" y="177" fill="#1D1D1D">0101</tspan><tspan x="208.2" y="177" fill="#282828">01</tspan><tspan x="216.6" y="177" fill="#1D1D1D">0</tspan><tspan x="220.8" y="177" fill="#121212">1</tspan>
<tspan x="15.0" y="186" fill="#4F4F4F">1</tspan><tspan x="19.2" y="186" fill="#434343">010</tspan><tspan x="31.8" y="186" fill="#2F2F2F">1</tspan><tspan x="36.0" y="186" fill="#1E1E1E">010</tspan><tspan x="48.6" y="186" fill="#3B3B3B">10</tspan><tspan x="57.0" y="186" fill="#2C2C2C">1</tspan><tspan x="61.2" y="186" fill="#BDBDBD">0</tspan><tspan x="65.4" y="186" fill="#9E9E9E">1</tspan><tspan x="69.6" y="186" fill="#ABABAB">0</tspan><tspan x="73.8" y="186" fill="#D7D7D7">1</tspan><tspan x="78.0" y="186" fill="#F4F4F4">0</tspan><tspan x="82.2" y="186" fill="#FFFFFF">10101</tspan><tspan x="103.2" y="186" fill="#E7E7E7">0</tspan><tspan x="107.4" y="186" fill="#707070">1</tspan><tspan x="111.6" y="186" fill="#565656">0</tspan><tspan x="115.8" y="186" fill="#737373">10</tspan><tspan x="124.2" y="186" fill="#808080">10</tspan><tspan x="132.6" y="186" fill="#DBDBDB">1</tspan><tspan x="136.8" y="186" fill="#FFFFFF">0101</tspan><tspan x="153.6" y="186" fill="#F1F1F1">0</tspan><tspan x="157.8" y="186" fill="#E0E0E0">1</tspan><tspan x="162.0" y="186" fill="#C2C2C2">0</tspan><tspan x="166.2" y="186" fill="#A7A7A7">1</tspan><tspan x="170.4" y="186" fill="#8A8A8A">0</tspan><tspan x="174.6" y="186" fill="#C5C5C5">1</tspan><tspan x="178.8" y="186" fill="#F8F8F8">0</tspan><tspan x="183.0" y="186" fill="#A9A9A9">1</tspan><tspan x="187.2" y="186" fill="#232323">0101</tspan><tspan x="204.0" y="186" fill="#191919">01</tspan><tspan x="212.4" y="186" fill="#262626">0</tspan><tspan x="216.6" y="186" fill="#171717">10</tspan>
<tspan x="15.0" y="195" fill="#656565">01</tspan><tspan x="23.4" y="195" fill="#737373">0</tspan><tspan x="27.6" y="195" fill="#5E5E5E">1</tspan><tspan x="31.8" y="195" fill="#4C4C4C">0</tspan><tspan x="36.0" y="195" fill="#333333">1</tspan><tspan x="40.2" y="195" fill="#3E3E3E">0</tspan><tspan x="44.4" y="195" fill="#494949">10</tspan><tspan x="52.8" y="195" fill="#3D3D3D">1</tspan><tspan x="57.0" y="195" fill="#1F1F1F">0</tspan><tspan x="61.2" y="195" fill="#ABABAB">1</tspan><tspan x="65.4" y="195" fill="#C3C3C3">01</tspan><tspan x="73.8" y="195" fill="#A6A6A6">0</tspan><tspan x="78.0" y="195" fill="#C2C2C2">1</tspan><tspan x="82.2" y="195" fill="#DDDDDD">0</tspan><tspan x="86.4" y="195" fill="#E6E6E6">1</tspan><tspan x="90.6" y="195" fill="#F2F2F2">0</tspan><tspan x="94.8" y="195" fill="#FFFFFF">101</tspan><tspan x="107.4" y="195" fill="#CBCBCB">0</tspan><tspan x="111.6" y="195" fill="#ACACAC">10</tspan><tspan x="120.0" y="195" fill="#C1C1C1">101</tspan><tspan x="132.6" y="195" fill="#D1D1D1">01</tspan><tspan x="141.0" y="195" fill="#C3C3C3">0</tspan><tspan x="145.2" y="195" fill="#CCCCCC">10</tspan><tspan x="153.6" y="195" fill="#BEBEBE">10</tspan><tspan x="162.0" y="195" fill="#AEAEAE">1</tspan><tspan x="166.2" y="195" fill="#A0A0A0">0</tspan><tspan x="170.4" y="195" fill="#8F8F8F">1</tspan><tspan x="174.6" y="195" fill="#A8A8A8">0</tspan><tspan x="178.8" y="195" fill="#C4C4C4">1</tspan><tspan x="183.0" y="195" fill="#848484">0</tspan><tspan x="187.2" y="195" fill="#444444">10</tspan><tspan x="195.6" y="195" fill="#3A3A3A">1</tspan><tspan x="199.8" y="195" fill="#242424">0</tspan><tspan x="204.0" y="195" fill="#1A1A1A">1</tspan><tspan x="208.2" y="195" fill="#272727">0</tspan><tspan x="212.4" y="195" fill="#393939">1</tspan><tspan x="216.6" y="195" fill="#1F1F1F">0</tspan><tspan x="220.8" y="195" fill="#151515">1</tspan>
<tspan x="15.0" y="204" fill="#5B5B5B">1</tspan><tspan x="19.2" y="204" fill="#676767">0</tspan><tspan x="23.4" y="204" fill="#444444">10</tspan><tspan x="31.8" y="204" fill="#4E4E4E">1</tspan><tspan x="36.0" y="204" fill="#323232">010101</tspan><tspan x="61.2" y="204" fill="#828282">0</tspan><tspan x="65.4" y="204" fill="#F9F9F9">1</tspan><tspan x="69.6" y="204" fill="#C4C4C4">0</tspan><tspan x="73.8" y="204" fill="#969696">101</tspan><tspan x="86.4" y="204" fill="#A3A3A3">0</tspan><tspan x="90.6" y="204" fill="#B9B9B9">1</tspan><tspan x="94.8" y="204" fill="#CACACA">0</tspan><tspan x="99.0" y="204" fill="#959595">1</tspan><tspan x="103.2" y="204" fill="#7F7F7F">0</tspan><tspan x="107.4" y="204" fill="#9B9B9B">1</tspan><tspan x="111.6" y="204" fill="#BEBEBE">0</tspan><tspan x="115.8" y="204" fill="#CFCFCF">10</tspan><tspan x="124.2" y="204" fill="#DEDEDE">1</tspan><tspan x="128.4" y="204" fill="#D5D5D5">0</tspan><tspan x="132.6" y="204" fill="#C0C0C0">1</tspan><tspan x="136.8" y="204" fill="#A7A7A7">0</tspan><tspan x="141.0" y="204" fill="#7B7B7B">1</tspan><tspan x="145.2" y="204" fill="#909090">0</tspan><tspan x="149.4" y="204" fill="#ACACAC">10</tspan><tspan x="157.8" y="204" fill="#BCBCBC">101</tspan><tspan x="170.4" y="204" fill="#949494">0</tspan><tspan x="174.6" y="204" fill="#5A5A5A">1</tspan><tspan x="178.8" y="204" fill="#2C2C2C">01</tspan><tspan x="187.2" y="204" fill="#6A6A6A">0</tspan><tspan x="191.4" y="204" fill="#5E5E5E">1</tspan><tspan x="195.6" y="204" fill="#444444">01</tspan><tspan x="204.0" y="204" fill="#2C2C2C">0</tspan><tspan x="208.2" y="204" fill="#1B1B1B">1</tspan><tspan x="212.4" y="204" fill="#2D2D2D">0</tspan><tspan x="216.6" y="204" fill="#1E1E1E">10</tspan>
<tspan x="15.0" y="213" fill="#5C5C5C">0</tspan><tspan x="19.2" y="213" fill="#6D6D6D">1</tspan><tspan x="23.4" y="213" fill="#5D5D5D">0</tspan><tspan x="27.6" y="213" fill="#3E3E3E">10</tspan><tspan x="36.0" y="213" fill="#262626">10</tspan><tspan x="44.4" y="213" fill="#3B3B3B">10</tspan><tspan x="52.8" y="213" fill="#474747">1</tspan><tspan x="57.0" y="213" fill="#393939">0</tspan><tspan x="61.2" y="213" fill="#4D4D4D">1</tspan><tspan x="65.4" y="213" fill="#A0A0A0">01010</tspan><tspan x="86.4" y="213" fill="#959595">10</tspan><tspan x="94.8" y="213" fill="#888888">1</tspan><tspan x="99.0" y="213" fill="#575757">0</tspan><tspan x="103.2" y="213" fill="#808080">1</tspan><tspan x="107.4" y="213" fill="#C8C8C8">0</tspan><tspan x="111.6" y="213" fill="#E5E5E5">10</tspan><tspan x="120.0" y="213" fill="#D9D9D9">101</tspan><tspan x="132.6" y="213" fill="#F1F1F1">01</tspan><tspan x="141.0" y="213" fill="#E1E1E1">0</tspan><tspan x="145.2" y="213" fill="#C0C0C0">1</tspan><tspan x="149.4" y="213" fill="#A4A4A4">01</tspan><tspan x="157.8" y="213" fill="#B2B2B2">01</tspan><tspan x="166.2" y="213" fill="#A8A8A8">0</tspan><tspan x="170.4" y="213" fill="#7D7D7D">1</tspan><tspan x="174.6" y="213" fill="#050505">01</tspan><tspan x="183.0" y="213" fill="#1A1A1A">0</tspan><tspan x="187.2" y="213" fill="#5E5E5E">10</tspan><tspan x="195.6" y="213" fill="#4A4A4A">10</tspan><tspan x="204.0" y="213" fill="#3E3E3E">1</tspan><tspan x="208.2" y="213" fill="#333333">0</tspan><tspan x="212.4" y="213" fill="#222222">1</tspan><tspan x="216.6" y="213" fill="#171717">01</tspan>
<tspan x="15.0" y="222" fill="#565656">10</tspan><tspan x="23.4" y="222" fill="#858585">1</tspan><tspan x="27.6" y="222" fill="#6F6F6F">0</tspan><tspan x="31.8" y="222" fill="#4A4A4A">1</tspan><tspan x="36.0" y="222" fill="#353535">01</tspan><tspan x="44.4" y="222" fill="#535353">01</tspan><tspan x="52.8" y="222" fill="#383838">0</tspan><tspan x="57.0" y="222" fill="#505050">1</tspan><tspan x="61.2" y="222" fill="#383838">0</tspan><tspan x="65.4" y="222" fill="#1C1C1C">101</tspan><tspan x="78.0" y="222" fill="#858585">0</tspan><tspan x="82.2" y="222" fill="#A7A7A7">1</tspan><tspan x="86.4" y="222" fill="#999999">0</tspan><tspan x="90.6" y="222" fill="#8F8F8F">10</tspan><tspan x="99.0" y="222" fill="#9E9E9E">1</tspan><tspan x="103.2" y="222" fill="#B7B7B7">0</tspan><tspan x="107.4" y="222" fill="#A0A0A0">1</tspan><tspan x="111.6" y="222" fill="#939393">01</tspan><tspan x="120.0" y="222" fill="#888888">01</tspan><tspan x="128.4" y="222" fill="#B1B1B1">0</tspan><tspan x="132.6" y="222" fill="#C6C6C6">10</tspan><tspan x="141.0" y="222" fill="#BCBCBC">1</tspan><tspan x="145.2" y="222" fill="#AEAEAE">0</tspan><tspan x="149.4" y="222" fill="#9C9C9C">1</tspan><tspan x="153.6" y="222" fill="#8C8C8C">010</tspan><tspan x="166.2" y="222" fill="#818181">1</tspan><tspan x="170.4" y="222" fill="#4C4C4C">0</tspan><tspan x="174.6" y="222" fill="#0A0A0A">101</tspan><tspan x="187.2" y="222" fill="#4C4C4C">01</tspan><tspan x="195.6" y="222" fill="#616161">0</tspan><tspan x="199.8" y="222" fill="#6B6B6B">1</tspan><tspan x="204.0" y="222" fill="#5E5E5E">0</tspan><tspan x="208.2" y="222" fill="#505050">1</tspan><tspan x="212.4" y="222" fill="#262626">0</tspan><tspan x="216.6" y="222" fill="#161616">10</tspan>
<tspan x="15.0" y="231" fill="#474747">0</tspan><tspan x="19.2" y="231" fill="#616161">10</tspan><tspan x="27.6" y="231" fill="#6D6D6D">1</tspan><tspan x="31.8" y="231" fill="#393939">0</tspan><tspan x="36.0" y="231" fill="#292929">1</tspan><tspan x="40.2" y="231" fill="#393939">0</tspan><tspan x="44.4" y="231" fill="#505050">1</tspan><tspan x="48.6" y="231" fill="#5C5C5C">0</tspan><tspan x="52.8" y="231" fill="#303030">1</tspan><tspan x="57.0" y="231" fill="#1B1B1B">0</tspan><tspan x="61.2" y="231" fill="#2F2F2F">10</tspan><tspan x="69.6" y="231" fill="#191919">1</tspan><tspan x="73.8" y="231" fill="#0B0B0B">0</tspan><tspan x="78.0" y="231" fill="#292929">1</tspan><tspan x="82.2" y="231" fill="#777777">01010</tspan><tspan x="103.2" y="231" fill="#929292">1</tspan><tspan x="107.4" y="231" fill="#AAAAAA">0</tspan><tspan x="111.6" y="231" fill="#BABABA">1</tspan><tspan x="115.8" y="231" fill="#D0D0D0">0</tspan><tspan x="120.0" y="231" fill="#DEDEDE">10</tspan><tspan x="128.4" y="231" fill="#EEEEEE">10</tspan><tspan x="136.8" y="231" fill="#E4E4E4">1</tspan><tspan x="141.0" y="231" fill="#C8C8C8">0</tspan><tspan x="145.2" y="231" fill="#A3A3A3">1</tspan><tspan x="149.4" y="231" fill="#8A8A8A">0</tspan><tspan x="153.6" y="231" fill="#797979">1</tspan><tspan x="157.8" y="231" fill="#696969">0</tspan><tspan x="162.0" y="231" fill="#5C5C5C">1</tspan><tspan x="166.2" y="231" fill="#3B3B3B">0</tspan><tspan x="170.4" y="231" fill="#171717">1</tspan><tspan x="174.6" y="231" fill="#0E0E0E">01</tspan><tspan x="187.2" y="231" fill="#2B2B2B">1</tspan><tspan x="191.4" y="231" fill="#464646">010</tspan><tspan x="204.0" y="231" fill="#535353">10</tspan><tspan x="212.4" y="231" fill="#212121">1</tspan><tspan x="216.6" y="231" fill="#161616">0</tspan><tspan x="220.8" y="231" fill="#252525">1</tspan>
<tspan x="15.0" y="240" fill="#141414">1</tspan><tspan x="19.2" y="240" fill="#2F2F2F">01</tspan><tspan x="27.6" y="240" fill="#464646">0</tspan><tspan x="31.8" y="240" fill="#505050">1</tspan><tspan x="36.0" y="240" fill="#2F2F2F">0</tspan><tspan x="40.2" y="240" fill="#1D1D1D">1010</tspan><tspan x="57.0" y="240" fill="#2E2E2E">10</tspan><tspan x="65.4" y="240" fill="#424242">1</tspan><tspan x="69.6" y="240" fill="#353535">01</tspan><tspan x="78.0" y="240" fill="#1D1D1D">01</tspan><tspan x="86.4" y="240" fill="#484848">0</tspan><tspan x="90.6" y="240" fill="#515151">10</tspan><tspan x="99.0" y="240" fill="#636363">1</tspan><tspan x="103.2" y="240" fill="#8A8A8A">0</tspan><tspan x="107.4" y="240" fill="#A4A4A4">1010</tspan><tspan x="124.2" y="240" fill="#9B9B9B">1010</tspan><tspan x="141.0" y="240" fill="#8E8E8E">1</tspan><tspan x="145.2" y="240" fill="#707070">0</tspan><tspan x="149.4" y="240" fill="#525252">1</tspan><tspan x="153.6" y="240" fill="#414141">01</tspan><tspan x="162.0" y="240" fill="#616161">0</tspan><tspan x="166.2" y="240" fill="#404040">1</tspan><tspan x="170.4" y="240" fill="#050505">0</tspan><tspan x="174.6" y="240" fill="#151515">1</tspan><tspan x="178.8" y="240" fill="#0B0B0B">010</tspan><tspan x="191.4" y="240" fill="#383838">1</tspan><tspan x="195.6" y="240" fill="#434343">0</tspan><tspan x="199.8" y="240" fill="#4C4C4C">1</tspan><tspan x="204.0" y="240" fill="#595959">01</tspan><tspan x="212.4" y="240" fill="#242424">0</tspan><tspan x="216.6" y="240" fill="#111111">1</tspan><tspan x="220.8" y="240" fill="#212121">0</tspan>
<tspan x="15.0" y="249" fill="#353535">0</tspan><tspan x="19.2" y="249" fill="#494949">1</tspan><tspan x="23.4" y="249" fill="#3E3E3E">0</tspan><tspan x="27.6" y="249" fill="#2E2E2E">1</tspan><tspan x="31.8" y="249" fill="#1F1F1F">01</tspan><tspan x="40.2" y="249" fill="#484848">0</tspan><tspan x="44.4" y="249" fill="#3E3E3E">1</tspan><tspan x="48.6" y="249" fill="#232323">0101</tspan><tspan x="65.4" y="249" fill="#4D4D4D">0</tspan><tspan x="69.6" y="249" fill="#656565">101</tspan><tspan x="82.2" y="249" fill="#313131">0</tspan><tspan x="86.4" y="249" fill="#080808">1</tspan><tspan x="90.6" y="249" fill="#4C4C4C">01</tspan><tspan x="99.0" y="249" fill="#303030">0</tspan><tspan x="103.2" y="249" fill="#3D3D3D">1</tspan><tspan x="107.4" y="249" fill="#4C4C4C">01</tspan><tspan x="115.8" y="249" fill="#434343">0101010</tspan><tspan x="145.2" y="249" fill="#393939">10</tspan><tspan x="153.6" y="249" fill="#464646">1</tspan><tspan x="157.8" y="249" fill="#686868">0</tspan><tspan x="162.0" y="249" fill="#767676">1</tspan><tspan x="166.2" y="249" fill="#BEBEBE">0</tspan><tspan x="170.4" y="249" fill="#949494">1</tspan><tspan x="174.6" y="249" fill="#0D0D0D">0</tspan><tspan x="178.8" y="249" fill="#161616">1</tspan><tspan x="183.0" y="249" fill="#0A0A0A">01</tspan><tspan x="191.4" y="249" fill="#202020">0</tspan><tspan x="195.6" y="249" fill="#323232">1</tspan><tspan x="199.8" y="249" fill="#3B3B3B">010</tspan><tspan x="212.4" y="249" fill="#252525">1</tspan><tspan x="216.6" y="249" fill="#131313">0</tspan><tspan x="220.8" y="249" fill="#1E1E1E">1</tspan>
<tspan x="15.0" y="258" fill="#2D2D2D">1</tspan><tspan x="19.2" y="258" fill="#3C3C3C">0</tspan><tspan x="23.4" y="258" fill="#2F2F2F">101</tspan><tspan x="36.0" y="258" fill="#383838">0</tspan><tspan x="40.2" y="258" fill="#474747">1</tspan><tspan x="44.4" y="258" fill="#313131">0</tspan><tspan x="48.6" y="258" fill="#1B1B1B">101</tspan><tspan x="61.2" y="258" fill="#444444">0</tspan><tspan x="65.4" y="258" fill="#868686">10</tspan><tspan x="73.8" y="258" fill="#939393">1</tspan><tspan x="78.0" y="258" fill="#C4C4C4">0</tspan><tspan x="82.2" y="258" fill="#808080">1</tspan><tspan x="86.4" y="258" fill="#1C1C1C">0</tspan><tspan x="90.6" y="258" fill="#848484">1</tspan><tspan x="94.8" y="258" fill="#8E8E8E">0</tspan><tspan x="99.0" y="258" fill="#606060">1</tspan><tspan x="103.2" y="258" fill="#3D3D3D">0</tspan><tspan x="107.4" y="258" fill="#2B2B2B">1010</tspan><tspan x="124.2" y="258" fill="#222222">10</tspan><tspan x="132.6" y="258" fill="#2C2C2C">10</tspan><tspan x="141.0" y="258" fill="#454545">1</tspan><tspan x="145.2" y="258" fill="#555555">0</tspan><tspan x="149.4" y="258" fill="#646464">1</tspan><tspan x="153.6" y="258" fill="#828282">0</tspan><tspan x="157.8" y="258" fill="#919191">1</tspan><tspan x="162.0" y="258" fill="#888888">0</tspan><tspan x="166.2" y="258" fill="#BEBEBE">1</tspan><tspan x="170.4" y="258" fill="#FFFFFF">0</tspan><tspan x="174.6" y="258" fill="#A7A7A7">1</tspan><tspan x="178.8" y="258" fill="#0B0B0B">0</tspan><tspan x="183.0" y="258" fill="#1E1E1E">10</tspan><tspan x="191.4" y="258" fill="#4B4B4B">1</tspan><tspan x="195.6" y="258" fill="#545454">0</tspan><tspan x="199.8" y="258" fill="#333333">101</tspan><tspan x="212.4" y="258" fill="#242424">0</tspan><tspan x="216.6" y="258" fill="#111111">1</tspan><tspan x="220.8" y="258" fill="#1F1F1F">0</tspan>
<tspan x="15.0" y="267" fill="#323232">0</tspan><tspan x="19.2" y="267" fill="#4A4A4A">10</tspan><tspan x="27.6" y="267" fill="#535353">10</tspan><tspan x="36.0" y="267" fill="#383838">1</tspan><tspan x="40.2" y="267" fill="#2D2D2D">010</tspan><tspan x="52.8" y="267" fill="#222222">1</tspan><tspan x="57.0" y="267" fill="#0D0D0D">0</tspan><tspan x="61.2" y="267" fill="#3C3C3C">1</tspan><tspan x="65.4" y="267" fill="#D1D1D1">0</tspan><tspan x="69.6" y="267" fill="#ECECEC">1</tspan><tspan x="73.8" y="267" fill="#E3E3E3">0</tspan><tspan x="78.0" y="267" fill="#EDEDED">1</tspan><tspan x="82.2" y="267" fill="#8B8B8B">01</tspan><tspan x="90.6" y="267" fill="#D3D3D3">0</tspan><tspan x="94.8" y="267" fill="#969696">10</tspan><tspan x="103.2" y="267" fill="#848484">1</tspan><tspan x="107.4" y="267" fill="#767676">0</tspan><tspan x="111.6" y="267" fill="#696969">1</tspan><tspan x="115.8" y="267" fill="#5E5E5E">01</tspan><tspan x="124.2" y="267" fill="#555555">01</tspan><tspan x="132.6" y="267" fill="#636363">0</tspan><tspan x="136.8" y="267" fill="#787878">1</tspan><tspan x="141.0" y="267" fill="#838383">01</tspan><tspan x="149.4" y="267" fill="#929292">0</tspan><tspan x="153.6" y="267" fill="#9F9F9F">10</tspan><tspan x="162.0" y="267" fill="#8B8B8B">1</tspan><tspan x="166.2" y="267" fill="#B7B7B7">0</tspan><tspan x="170.4" y="267" fill="#FDFDFD">10</tspan><tspan x="178.8" y="267" fill="#A9A9A9">1</tspan><tspan x="183.0" y="267" fill="#232323">0</tspan><tspan x="187.2" y="267" fill="#2F2F2F">1</tspan><tspan x="191.4" y="267" fill="#6A6A6A">0</tspan><tspan x="195.6" y="267" fill="#BFBFBF">1</tspan><tspan x="199.8" y="267" fill="#B4B4B4">0</tspan><tspan x="204.0" y="267" fill="#6D6D6D">10</tspan><tspan x="212.4" y="267" fill="#3F3F3F">1</tspan><tspan x="216.6" y="267" fill="#141414">0</tspan><tspan x="220.8" y="267" fill="#202020">1</tspan>
<tspan x="15.0" y="276" fill="#939393">1</tspan><tspan x="19.2" y="276" fill="#767676">0</tspan><tspan x="23.4" y="276" fill="#5C5C5C">101</tspan><tspan x="36.0" y="276" fill="#3E3E3E">01</tspan><tspan x="44.4" y="276" fill="#626262">01</tspan><tspan x="52.8" y="276" fill="#333333">0</tspan><tspan x="57.0" y="276" fill="#131313">1</tspan><tspan x="61.2" y="276" fill="#7A7A7A">0</tspan><tspan x="65.4" y="276" fill="#FEFEFE">1010</tspan><tspan x="82.2" y="276" fill="#6E6E6E">1</tspan><tspan x="86.4" y="276" fill="#C1C1C1">0</tspan><tspan x="90.6" y="276" fill="#D1D1D1">1</tspan><tspan x="94.8" y="276" fill="#858585">0</tspan><tspan x="99.0" y="276" fill="#A5A5A5">1</tspan><tspan x="103.2" y="276" fill="#9A9A9A">01</tspan><tspan x="111.6" y="276" fill="#8F8F8F">01</tspan><tspan x="120.0" y="276" fill="#828282">01</tspan><tspan x="128.4" y="276" fill="#8D8D8D">0</tspan><tspan x="132.6" y="276" fill="#979797">10101</tspan><tspan x="153.6" y="276" fill="#A6A6A6">01</tspan><tspan x="162.0" y="276" fill="#8C8C8C">0</tspan><tspan x="166.2" y="276" fill="#E9E9E9">1</tspan><tspan x="170.4" y="276" fill="#FFFFFF">010</tspan><tspan x="183.0" y="276" fill="#AFAFAF">1</tspan><tspan x="187.2" y="276" fill="#2D2D2D">0</tspan><tspan x="191.4" y="276" fill="#1D1D1D">1</tspan><tspan x="195.6" y="276" fill="#414141">0</tspan><tspan x="199.8" y="276" fill="#959595">1</tspan><tspan x="204.0" y="276" fill="#B7B7B7">0</tspan><tspan x="208.2" y="276" fill="#ECECEC">1</tspan><tspan x="212.4" y="276" fill="#888888">0</tspan><tspan x="216.6" y="276" fill="#191919">10</tspan>
</text>
<text font-family="ConsolasFallback,Consolas,monospace" font-size="14px" fill="#c9d1d9">
<tspan x="310" y="30">saad@ahsan</tspan>
<tspan x="15" y="30" fill="#616e7f">────────────────────────────────────────</tspan>
<tspan x="310" y="50" fill="#616e7f">. </tspan><tspan fill="#ffa657">OS</tspan><tspan fill="#616e7f">: ..................... </tspan><tspan fill="#a5d6ff">Windows 10, Linux</tspan>
<tspan x="310" y="70" fill="#616e7f">. </tspan><tspan fill="#ffa657">Uptime</tspan><tspan fill="#616e7f">: ................. </tspan><tspan fill="#a5d6ff">Learner since day 1</tspan>
<tspan x="310" y="90" fill="#616e7f">. </tspan><tspan fill="#ffa657">Role</tspan><tspan fill="#616e7f">: ................... </tspan><tspan fill="#a5d6ff">Full-Stack Product Builder</tspan>
<tspan x="310" y="110" fill="#616e7f">. </tspan><tspan fill="#ffa657">Focus</tspan><tspan fill="#616e7f">: .......... </tspan><tspan fill="#a5d6ff">Trading, Web3, AI Automation</tspan>
<tspan x="310" y="130" fill="#616e7f">. </tspan><tspan fill="#ffa657">IDE</tspan><tspan fill="#616e7f">: ..................... </tspan><tspan fill="#a5d6ff">VSCode, Cursor</tspan>
<tspan x="310" y="160" fill="#616e7f">. </tspan><tspan fill="#ffa657">Languages.Programming</tspan><tspan fill="#616e7f">: </tspan><tspan fill="#a5d6ff">JS, TS, Python, Rust</tspan>
<tspan x="310" y="180" fill="#616e7f">  </tspan><tspan fill="#a5d6ff">C, C++, C#, Java, Dart</tspan>
<tspan x="310" y="200" fill="#616e7f">. </tspan><tspan fill="#ffa657">Languages.Markup</tspan><tspan fill="#616e7f">: ...... </tspan><tspan fill="#a5d6ff">HTML, CSS, JSON, YAML</tspan>
<tspan x="310" y="220" fill="#616e7f">. </tspan><tspan fill="#ffa657">Languages.Real</tspan><tspan fill="#616e7f">: ................. </tspan><tspan fill="#a5d6ff">Bangla, English</tspan>
<tspan x="310" y="250" fill="#616e7f">. </tspan><tspan fill="#ffa657">Frameworks</tspan><tspan fill="#616e7f">: ........... </tspan><tspan fill="#a5d6ff">React, Next.js, Node.js, Vite</tspan>
<tspan x="310" y="270" fill="#616e7f">. </tspan><tspan fill="#ffa657">Databases</tspan><tspan fill="#616e7f">: ............ </tspan><tspan fill="#a5d6ff">MongoDB, MySQL, Firebase</tspan>
<tspan x="310" y="290" fill="#616e7f">. </tspan><tspan fill="#ffa657">Cloud</tspan><tspan fill="#616e7f">: .................. </tspan><tspan fill="#a5d6ff">AWS, GCP, Azure, Vercel</tspan>
<tspan x="310" y="310" fill="#616e7f">. </tspan><tspan fill="#ffa657">Web3</tspan><tspan fill="#616e7f">: ... </tspan><tspan fill="#a5d6ff">Ethereum, Solana, Polygon, Hardhat</tspan>
<tspan x="310" y="350">- Contact</tspan>
<tspan x="100" y="350" fill="#616e7f">────────────────────────────────────────</tspan>
<tspan x="310" y="370" fill="#616e7f">. </tspan><tspan fill="#ffa657">Email</tspan><tspan fill="#616e7f">: ...................... </tspan><tspan fill="#a5d6ff">dinerahmed476@gmail.com</tspan>
<tspan x="310" y="390" fill="#616e7f">. </tspan><tspan fill="#ffa657">LinkedIn</tspan><tspan fill="#616e7f">: ........................ </tspan><tspan fill="#a5d6ff">diner-ahmed</tspan>
<tspan x="310" y="410" fill="#616e7f">. </tspan><tspan fill="#ffa657">X/Twitter</tspan><tspan fill="#616e7f">: ....................... </tspan><tspan fill="#a5d6ff">DinerAhmed14</tspan>
<tspan x="310" y="430" fill="#616e7f">. </tspan><tspan fill="#ffa657">Discord</tspan><tspan fill="#616e7f">: ......................... </tspan><tspan fill="#a5d6ff">DinerAhmed</tspan>
<tspan x="310" y="470">- Interests</tspan>
<tspan x="110" y="470" fill="#616e7f">────────────────────────────────────────</tspan>
<tspan x="310" y="490" fill="#616e7f">. </tspan><tspan fill="#ffa657">Passion</tspan><tspan fill="#616e7f">: .......... </tspan><tspan fill="#a5d6ff">Web3 &amp; AI · Finance &amp; Tech</tspan>
<tspan x="310" y="510" fill="#616e7f">. </tspan><tspan fill="#ffa657">Mission</tspan><tspan fill="#616e7f">: ....... </tspan><tspan fill="#a5d6ff">Execution, Scalability, Impact</tspan>
<tspan x="310" y="530" fill="#616e7f">. </tspan><tspan fill="#ffa657">Design</tspan><tspan fill="#616e7f">: ............ </tspan><tspan fill="#a5d6ff">Figma, Photoshop, Blender</tspan>
</text>
</svg>